<?xml version="1.0" encoding="utf-8"?>
<!-- Generator: Adobe Illustrator 16.0.0, SVG Export Plug-In . SVG Version: 6.00 Build 0)  -->
<!DOCTYPE svg PUBLIC "-//W3C//DTD SVG 1.1//EN" "http://www.w3.org/Graphics/SVG/1.1/DTD/svg11.dtd">
<svg version="1.1" id="Layer_1" xmlns="http://www.w3.org/2000/svg" xmlns:xlink="http://www.w3.org/1999/xlink" x="0px" y="0px"
	 width="141.73px" height="141.73px" viewBox="0 0 141.73 141.73" enable-background="new 0 0 141.73 141.73" xml:space="preserve">
<path fill-rule="evenodd" clip-rule="evenodd" fill="none" stroke="#ED1C24" stroke-miterlimit="10" d="M104.499,88.252
	c-0.138-0.007-0.046,0.36-0.077-0.004c0,0-0.089-1.325,0.83-2.604l0.081-0.002"/>
<path fill-rule="evenodd" clip-rule="evenodd" fill="none" stroke="#FFFFFF" stroke-miterlimit="10" d="M104.499,88.377"/>
<path fill-rule="evenodd" clip-rule="evenodd" fill="none" stroke="#ED1C24" stroke-linecap="round" stroke-miterlimit="10" d="
	M108.096,85.207l-0.786,0.349c0,0-1.62,0.799-1.528,2.67c-0.04-0.001,0.086,0.249,0.048,0.248"/>
<rect x="2.113" y="28.274" fill="#F7D317" width="53.276" height="76.02"/>
<rect x="42.07" y="45.478" fill="#2BADDE" width="43.841" height="76.028"/>
<rect x="70.463" y="17.731" fill="#4AB749" width="25.436" height="90.903"/>
<rect x="77.12" y="57.687" fill="#E47825" width="44.861" height="47.243"/>
<g>
	<text transform="matrix(1 -0.0043 0.0043 1 15.2808 88.2656)"><tspan x="0" y="0" fill="#40515B" stroke="#40515B" stroke-miterlimit="10" font-family="'LaoUI'" font-size="35.6912">M</tspan><tspan x="32.049" y="0" fill="#FFFFFF" font-family="'LaoUI'" font-size="35.6912">yCl</tspan><tspan x="80.061" y="0" fill="#40515B" stroke="#40515B" stroke-miterlimit="10" font-family="'LaoUI'" font-size="35.6912">o</tspan></text>
</g>
<g>
	
		<path fill-rule="evenodd" clip-rule="evenodd" fill="#FFFFFF" stroke="#FFFFFF" stroke-linejoin="round" stroke-miterlimit="10" d="
		M111.575,86.615c0.065,0.07,0.131,0.145,0.198,0.22c0.324-0.149,0.669-0.306,1.011-0.46c-0.082-0.24-0.183-0.466-0.3-0.677"/>
	
		<path fill-rule="evenodd" clip-rule="evenodd" fill="#FFFFFF" stroke="#FFFFFF" stroke-linejoin="round" stroke-miterlimit="10" d="
		M109.979,83.852c-0.602-0.136-1.257-0.147-1.938-0.018c-2.106,0.399-3.673,2.317-3.623,4.432c0.062,2.585,1.614,3.735,5.809,4.155
		c-0.299,0.437-0.503,0.821-0.787,1.14c-5.29,5.946-10.586,11.89-15.895,17.821c-0.81,0.904-1.36,1.857-1.207,3.089
		c0.248,1.991,2.338,3.243,4.353,2.587c0.229-0.074,0.446-0.182,0.667-0.282c13.565-6.195,27.129-12.389,40.689-18.591
		c2.521-1.154,3.201-3.933,1.292-5.519c-0.585-0.485-1.483-0.864-2.249-0.861c-6.995,0.041-13.992,0.176-21.149,0.286
		c0.002,0.489,0.003,0.862,0.006,1.343c1.94-0.021,3.809-0.039,5.679-0.068c4.919-0.071,9.839-0.151,14.759-0.222
		c1.599-0.023,2.348,0.427,2.576,1.505c0.215,1.013-0.302,1.748-1.698,2.387c-13.415,6.13-26.833,12.261-40.252,18.388
		c-1.391,0.637-2.293,0.545-2.913-0.276c-0.654-0.867-0.494-1.769,0.55-2.938c5.217-5.852,10.434-11.702,15.657-17.549
		c1.653-1.85,1.663-1.841,0.552-3.789c-1.282-0.072-2.434,0.027-3.464-0.259c-0.57-0.157-1.087-0.89-1.361-1.486
		c-0.6-1.297,0.029-2.853,1.28-3.569c0.551-0.313,0.934-0.468,1.447-0.461"/>
</g>
<rect x="115.114" y="88.902" fill-rule="evenodd" clip-rule="evenodd" fill="#E47825" width="6.867" height="16.027"/>
</svg>
